<svg width="35" height="35" viewBox="0 0 35 35" fill="none" xmlns="http://www.w3.org/2000/svg">
<g clip-path="url(#clip0_58_2)">
<path d="M32.0833 18.4722C31.9554 18.473 31.8285 18.4484 31.7101 18.4001C31.5916 18.3517 31.4839 18.2804 31.393 18.1903L17.5 4.2875L3.60693 18.1903C3.42094 18.3496 3.1817 18.4328 2.93702 18.4233C2.69233 18.4139 2.46022 18.3124 2.28708 18.1393C2.11393 17.9662 2.0125 17.734 2.00304 17.4894C1.99359 17.2447 2.07682 17.0054 2.2361 16.8194L16.8194 2.23611C17.0016 2.05504 17.248 1.9534 17.5048 1.9534C17.7617 1.9534 18.0081 2.05504 18.1903 2.23611L32.7736 16.8194C32.9074 16.9559 32.998 17.1288 33.034 17.3165C33.0701 17.5042 33.0501 17.6983 32.9764 17.8747C32.9028 18.051 32.7788 18.2018 32.6199 18.3081C32.4611 18.4143 32.2744 18.4714 32.0833 18.4722Z" fill="black"/>
<path d="M17.5 7.57361L5.83337 19.2792V31.1111C5.83337 31.6268 6.03823 32.1214 6.40289 32.486C6.76754 32.8507 7.26212 33.0556 7.77782 33.0556H14.5834V23.3333H20.4167V33.0556H27.2223C27.738 33.0556 28.2325 32.8507 28.5972 32.486C28.9618 32.1214 29.1667 31.6268 29.1667 31.1111V19.2111L17.5 7.57361Z" fill="black"/>
</g>
<defs>
<clipPath id="clip0_58_2">
<rect width="35" height="35" fill="white"/>
</clipPath>
</defs>
</svg>
