<svg width="31" height="31" viewBox="0 0 31 31" fill="none" xmlns="http://www.w3.org/2000/svg">
<path fill-rule="evenodd" clip-rule="evenodd" d="M10.3333 9.04167C10.3333 7.67138 10.8777 6.35722 11.8466 5.38828C12.8156 4.41934 14.1297 3.875 15.5 3.875C16.8703 3.875 18.1844 4.41934 19.1534 5.38828C20.1223 6.35722 20.6667 7.67138 20.6667 9.04167C20.6667 10.412 20.1223 11.7261 19.1534 12.6951C18.1844 13.664 16.8703 14.2083 15.5 14.2083C14.1297 14.2083 12.8156 13.664 11.8466 12.6951C10.8777 11.7261 10.3333 10.412 10.3333 9.04167ZM10.3333 16.7917C8.62048 16.7917 6.97777 17.4721 5.7666 18.6833C4.55543 19.8944 3.875 21.5371 3.875 23.25C3.875 24.2777 4.28326 25.2633 5.00996 25.99C5.73666 26.7167 6.72229 27.125 7.75 27.125H23.25C24.2777 27.125 25.2633 26.7167 25.99 25.99C26.7167 25.2633 27.125 24.2777 27.125 23.25C27.125 21.5371 26.4446 19.8944 25.2334 18.6833C24.0222 17.4721 22.3795 16.7917 20.6667 16.7917H10.3333Z" fill="black"/>
</svg>
